<?xml version="1.0" ?>
<svg id="Expand" viewBox="0 0 64 64" xmlns="http://www.w3.org/2000/svg">
    <path
        d="M36.137,61.717c.693-.1,1.389-.217,2.069-.36L37.794,59.4c-.634.134-1.283.246-1.931.336Z" />
    <path
        d="M39.725,58.921l.55,1.923a29.9,29.9,0,0,0,17.586-13.63L56.139,46.2A27.91,27.91,0,0,1,39.725,58.921Z" />
    <path
        d="M28.137,4.264l-.274-1.981c-.693.1-1.389.217-2.069.36L26.206,4.6C26.84,4.466,27.489,4.354,28.137,4.264Z" />
    <path
        d="M24.275,5.079l-.55-1.923A29.9,29.9,0,0,0,6.139,16.786L7.861,17.8A27.91,27.91,0,0,1,24.275,5.079Z" />
    <path
        d="M28,38a4,4,0,0,0,8,0c0-1.762-1.142-4.892-3-5.762v-6.46a17.665,17.665,0,0,1,5.207-12.571l-1.414-1.414A19.65,19.65,0,0,0,31,25.778v6.46C29.142,33.108,28,36.238,28,38Zm4-4c.748,0,2,2.505,2,4a2,2,0,0,1-4,0C30,36.505,31.252,34,32,34Z" />
    <rect height="2" width="2" x="15" y="43" />
    <rect height="2" width="2" x="22" y="50" />
    <rect height="2" width="2" x="28" y="47" />
    <rect height="2" width="2" x="40" y="45" />
    <rect height="2" width="2" x="48" y="44" />
    <rect height="2" width="2" x="36" y="51" />
    <path
        d="M32,58A26,26,0,1,0,6,32,26.029,26.029,0,0,0,32,58Zm0-2A24.036,24.036,0,0,1,9.271,39.689c.007.007.015.011.022.018a3.832,3.832,0,0,0,5.414,0,1.831,1.831,0,0,1,2.586,0l.5.5a3.831,3.831,0,0,0,5.414,0l.908-.908a7.99,7.99,0,0,0,15.77,0l.908.908a3.831,3.831,0,0,0,5.414,0l.5-.5a1.831,1.831,0,0,1,2.586,0,3.833,3.833,0,0,0,5.414,0c.007-.007.015-.011.022-.018A24.036,24.036,0,0,1,32,56ZM24.174,36.411l-2.381,2.382a1.831,1.831,0,0,1-2.586,0l-.5-.5a3.832,3.832,0,0,0-5.414,0,1.874,1.874,0,0,1-2.586,0,3.823,3.823,0,0,0-2.129-1.074A23.992,23.992,0,0,1,8.09,34H25.069A7.885,7.885,0,0,0,24.174,36.411Zm15.652,0a7.885,7.885,0,0,0-.9-2.411H55.91a23.9,23.9,0,0,1-.489,3.222,3.822,3.822,0,0,0-2.128,1.071,1.874,1.874,0,0,1-2.586,0,3.832,3.832,0,0,0-5.414,0l-.5.5a1.831,1.831,0,0,1-2.586,0ZM32,8A24.028,24.028,0,0,1,56,32H36.9a1,1,0,0,0-.7,1.714,6,6,0,1,1-8.39,0,1,1,0,0,0-.7-1.714H8A24.028,24.028,0,0,1,32,8Z" />
</svg>